<svg width="310" height="40" viewBox="0 0 310 40" fill="none" xmlns="http://www.w3.org/2000/svg">
<path d="M35.144 39H27.416L26.84 25.992C26.68 22.888 26.6 20.12 26.6 17.688C26.6 15.832 26.648 14.072 26.744 12.408L21.608 35.496H14.168L8.696 12.408C8.888 15.192 8.984 17.816 8.984 20.28C8.984 22.136 8.936 24.072 8.84 26.088L8.264 39H0.584L3.08 5.736H13.016L18.008 28.296L22.664 5.736H32.648L35.144 39ZM47.2944 13.512V39H39.7104V13.512H47.2944ZM43.4544 0.0719976C44.7664 0.0719976 45.8384 0.487998 46.6704 1.32C47.5344 2.12 47.9664 3.144 47.9664 4.392C47.9664 5.64 47.5344 6.68 46.6704 7.512C45.8384 8.312 44.7664 8.712 43.4544 8.712C42.1424 8.712 41.0704 8.312 40.2384 7.512C39.4064 6.68 38.9904 5.64 38.9904 4.392C38.9904 3.144 39.4064 2.12 40.2384 1.32C41.0704 0.487998 42.1424 0.0719976 43.4544 0.0719976ZM64.2973 12.696C66.0573 12.696 67.6413 12.952 69.0493 13.464C70.4573 13.976 71.7853 14.76 73.0333 15.816L69.7693 20.328C68.1693 19.112 66.5533 18.504 64.9213 18.504C63.2253 18.504 61.9453 19.128 61.0813 20.376C60.2173 21.624 59.7853 23.64 59.7853 26.424C59.7853 29.112 60.2173 31.016 61.0813 32.136C61.9453 33.256 63.1933 33.816 64.8253 33.816C65.6893 33.816 66.4733 33.688 67.1773 33.432C67.8813 33.144 68.7293 32.696 69.7213 32.088L73.0333 36.792C70.5053 38.808 67.6413 39.816 64.4413 39.816C61.8493 39.816 59.6093 39.272 57.7213 38.184C55.8333 37.064 54.3773 35.512 53.3533 33.528C52.3293 31.512 51.8173 29.16 51.8173 26.472C51.8173 23.784 52.3293 21.4 53.3533 19.32C54.3773 17.24 55.8333 15.624 57.7213 14.472C59.6093 13.288 61.8013 12.696 64.2973 12.696ZM91.154 12.696C93.362 12.696 95.09 13.368 96.338 14.712C97.586 16.056 98.21 17.944 98.21 20.376V39H90.626V21.672C90.626 20.392 90.418 19.512 90.002 19.032C89.586 18.52 88.994 18.264 88.226 18.264C86.69 18.264 85.218 19.352 83.81 21.528V39H76.226V3.384L83.81 2.616V16.248C84.866 15.064 85.986 14.184 87.17 13.608C88.354 13 89.682 12.696 91.154 12.696ZM126.153 25.752C126.153 26.808 126.105 27.72 126.009 28.488H110.217C110.473 30.632 111.081 32.136 112.041 33C113.001 33.864 114.329 34.296 116.025 34.296C117.049 34.296 118.041 34.12 119.001 33.768C119.961 33.384 121.001 32.808 122.121 32.04L125.241 36.264C122.265 38.632 118.953 39.816 115.305 39.816C111.177 39.816 108.009 38.6 105.801 36.168C103.593 33.736 102.489 30.472 102.489 26.376C102.489 23.784 102.953 21.464 103.881 19.416C104.809 17.336 106.169 15.704 107.961 14.52C109.753 13.304 111.897 12.696 114.393 12.696C118.073 12.696 120.953 13.848 123.033 16.152C125.113 18.456 126.153 21.656 126.153 25.752ZM118.713 23.592C118.649 19.688 117.273 17.736 114.585 17.736C113.273 17.736 112.249 18.216 111.513 19.176C110.809 20.136 110.377 21.72 110.217 23.928H118.713V23.592ZM137.182 39.816C134.974 39.816 133.246 39.192 131.998 37.944C130.782 36.664 130.174 34.856 130.174 32.52V3.384L137.758 2.568V32.232C137.758 33.288 138.19 33.816 139.054 33.816C139.502 33.816 139.918 33.736 140.302 33.576L141.79 38.952C140.414 39.528 138.878 39.816 137.182 39.816ZM167.142 26.28H164.07V39H156.198V5.736H167.094C171.638 5.736 175.046 6.568 177.318 8.232C179.622 9.896 180.774 12.44 180.774 15.864C180.774 18.008 180.262 19.8 179.238 21.24C178.214 22.648 176.598 23.848 174.39 24.84L182.838 39H173.958L167.142 26.28ZM164.07 20.856H167.382C169.142 20.856 170.454 20.456 171.318 19.656C172.214 18.856 172.662 17.592 172.662 15.864C172.662 14.264 172.182 13.096 171.222 12.36C170.294 11.624 168.854 11.256 166.902 11.256H164.07V20.856ZM193.263 13.512V39H185.679V13.512H193.263ZM189.423 0.0719976C190.735 0.0719976 191.807 0.487998 192.639 1.32C193.503 2.12 193.935 3.144 193.935 4.392C193.935 5.64 193.503 6.68 192.639 7.512C191.807 8.312 190.735 8.712 189.423 8.712C188.111 8.712 187.039 8.312 186.207 7.512C185.375 6.68 184.959 5.64 184.959 4.392C184.959 3.144 185.375 2.12 186.207 1.32C187.039 0.487998 188.111 0.0719976 189.423 0.0719976ZM213.674 12.696C216.714 12.696 219.05 13.896 220.682 16.296C222.314 18.664 223.13 21.992 223.13 26.28C223.13 28.904 222.714 31.24 221.882 33.288C221.082 35.336 219.914 36.936 218.378 38.088C216.874 39.24 215.082 39.816 213.002 39.816C211.626 39.816 210.362 39.528 209.21 38.952C208.09 38.376 207.13 37.576 206.33 36.552L205.946 39H199.226V3.384L206.81 2.568V16.104C207.578 15.048 208.554 14.216 209.738 13.608C210.954 13 212.266 12.696 213.674 12.696ZM210.794 34.296C213.77 34.296 215.258 31.624 215.258 26.28C215.258 23.24 214.906 21.144 214.202 19.992C213.498 18.84 212.474 18.264 211.13 18.264C209.434 18.264 207.994 19.256 206.81 21.24V31.848C207.29 32.616 207.866 33.224 208.538 33.672C209.242 34.088 209.994 34.296 210.794 34.296ZM250.091 25.752C250.091 26.808 250.043 27.72 249.947 28.488H234.155C234.411 30.632 235.019 32.136 235.979 33C236.939 33.864 238.267 34.296 239.963 34.296C240.987 34.296 241.979 34.12 242.939 33.768C243.899 33.384 244.939 32.808 246.059 32.04L249.179 36.264C246.203 38.632 242.891 39.816 239.243 39.816C235.115 39.816 231.947 38.6 229.739 36.168C227.531 33.736 226.427 30.472 226.427 26.376C226.427 23.784 226.891 21.464 227.819 19.416C228.747 17.336 230.107 15.704 231.899 14.52C233.691 13.304 235.835 12.696 238.331 12.696C242.011 12.696 244.891 13.848 246.971 16.152C249.051 18.456 250.091 21.656 250.091 25.752ZM242.651 23.592C242.587 19.688 241.211 17.736 238.523 17.736C237.211 17.736 236.187 18.216 235.451 19.176C234.747 20.136 234.315 21.72 234.155 23.928H242.651V23.592ZM261.935 13.512V39H254.351V13.512H261.935ZM258.095 0.0719976C259.407 0.0719976 260.479 0.487998 261.311 1.32C262.175 2.12 262.607 3.144 262.607 4.392C262.607 5.64 262.175 6.68 261.311 7.512C260.479 8.312 259.407 8.712 258.095 8.712C256.783 8.712 255.711 8.312 254.879 7.512C254.047 6.68 253.631 5.64 253.631 4.392C253.631 3.144 254.047 2.12 254.879 1.32C255.711 0.487998 256.783 0.0719976 258.095 0.0719976ZM281.722 12.792C282.65 12.792 283.498 12.904 284.266 13.128L283.066 20.472C282.106 20.248 281.338 20.136 280.762 20.136C279.258 20.136 278.106 20.664 277.306 21.72C276.538 22.744 275.93 24.296 275.482 26.376V39H267.898V13.512H274.522L275.146 18.456C275.722 16.696 276.586 15.32 277.738 14.328C278.922 13.304 280.25 12.792 281.722 12.792ZM296.75 12.696C300.654 12.696 303.71 13.896 305.918 16.296C308.126 18.664 309.23 21.992 309.23 26.28C309.23 29 308.718 31.384 307.694 33.432C306.702 35.448 305.262 37.016 303.374 38.136C301.518 39.256 299.31 39.816 296.75 39.816C292.878 39.816 289.822 38.632 287.582 36.264C285.374 33.864 284.27 30.52 284.27 26.232C284.27 23.512 284.766 21.144 285.758 19.128C286.782 17.08 288.222 15.496 290.078 14.376C291.966 13.256 294.19 12.696 296.75 12.696ZM296.75 18.264C295.214 18.264 294.062 18.92 293.294 20.232C292.526 21.512 292.142 23.512 292.142 26.232C292.142 29.016 292.51 31.048 293.246 32.328C294.014 33.608 295.182 34.248 296.75 34.248C298.286 34.248 299.438 33.608 300.206 32.328C300.974 31.016 301.358 29 301.358 26.28C301.358 23.496 300.974 21.464 300.206 20.184C299.47 18.904 298.318 18.264 296.75 18.264Z" fill="black"/>
</svg>
